<svg width="415" height="415" viewBox="0 0 415 415" xmlns="http://www.w3.org/2000/svg">
  <style>
    .automated {
      fill: #ffffff;
    }

    .texture,
    .big-circle {
      fill: #a2aaad;
    }

    .small-circle {
      fill: #333f48;
      opacity: 0.3;
    }

    .stroke {
      stroke: #c8102e;
      transform: rotate(-180deg);
      transform-origin: 206px 200px;
    }
  </style>
  <title>
    Vitamix blender control dial
  </title>
  <desc>
     Icons around the dial indicate blend functions. Used to adjust blade speed and texture.
  </desc>
  <g fill-rule="nonzero" fill="none">
    <path
      class="automated"
      d="M42.603 245.1c12.568 2.936 20.352 15.472 17.402 27.988-2.952 12.517-15.528 20.272-28.09 17.342-12.556-2.943-20.345-15.485-17.394-27.987 2.952-12.516 15.526-20.282 28.082-17.342ZM16.913 263c-2.64 11.194 4.332 22.406 15.564 25.048 11.244 2.627 22.493-4.318 25.133-15.515 2.642-11.201-4.326-22.414-15.567-25.042-11.238-2.63-22.489 4.306-25.13 15.51Zm25.59 1.642c2.753 0 4.986 2.224 4.987 4.968 0 .093-.02.178-.027.268.737.741 1.375 1.695 2.56 1.652 1.932-.065 2.06-2.608 4.634-2.448v.124l.002.037v.097c-.053 1.82-2.525 15.513-17.395 15.534h-.207c-15.33-.022-17.484-14.574-17.394-15.668v-.124c2.575-.16 2.705 2.384 4.635 2.448 1.932.067 2.404-2.511 4.25-2.511 1.77 0 2.117 2.605 4.127 2.571 1.732-.042 2.32-2.571 4.382-2.508h.207c.11-.008.2.026.304.037a4.96 4.96 0 0 1 4.935-4.477Zm0 2.117a2.852 2.852 0 0 0-2.853 2.85c.003.314.059.625.165.92.537.547 1.074 1.037 1.827 1.061 1.825.034 2.29-2.08 3.67-2.482a2.862 2.862 0 0 0-2.809-2.349Zm-9.89-8.389a3.963 3.963 0 0 1 3.965 3.956c0 2.174-1.776 3.949-3.966 3.949a3.959 3.959 0 0 1-3.965-3.952 3.959 3.959 0 0 1 3.965-3.953Zm0 1.898c-.548 0-1.072.218-1.458.604a2.05 2.05 0 0 0-.602 1.454 2.069 2.069 0 0 0 2.06 2.064c1.14 0 2.066-.934 2.066-2.064a2.06 2.06 0 0 0-2.067-2.058Zm8.764-9.63a4.98 4.98 0 0 1 4.986 4.85c-.004 2.743-2.233 4.966-4.986 4.972-2.752-.005-4.983-2.228-4.987-4.972a4.98 4.98 0 0 1 4.987-4.85Zm0 1.997a2.86 2.86 0 0 0-2.856 2.853 2.852 2.852 0 0 0 2.857 2.848 2.852 2.852 0 0 0 2.857-2.848 2.86 2.86 0 0 0-2.858-2.853Zm-12.672-80.072c12.568 2.944 20.354 15.475 17.407 27.992-2.96 12.52-15.534 20.28-28.094 17.334-12.557-2.93-20.342-15.474-17.395-27.984 2.95-12.512 15.525-20.278 28.082-17.342ZM3.016 190.466c-2.636 11.196 4.331 22.412 15.565 25.04 11.24 2.628 22.491-4.314 25.134-15.51 2.641-11.2-4.328-22.409-15.568-25.043-11.237-2.632-22.487 4.315-25.13 15.513Zm30.2-10.651c1.731.818 2.52 2.372 2.274 4.17-.246 1.79-2.91 2.712-5.366 4.162-2.454 1.451-4.124 2.628-5.542 3.605-3.86 2.66-7.396 4.64-11.2 7.169-.167.111-.452.563-.433.92.022.356.313.715.9 1.004 1.233.607 3.617-.942 4.878-1.542 2.033-.96 3.487-2.626 5.736-4.076 2.58-1.664 3.916-2.542 5.805-3.356 1.892-.818 4.49-1.123 6.876-.902 1.952.186 3.067 1.545 3.033 3.086-.039 1.53-4.497 3.21-7.28 4.256-2.866 1.071-6.66 3.937-7.245 4.658-.594.726-1.038 1.518-1.125 1.791-.093.274-.134.353-.093.582.046.24.348.504.81.628 1.208.299 2.643-.687 4.084-1.126 1.363-.418 2.335-.955 3.82-1.296 1.716-.532 2.94.706 2.94.706.95 1.216.018 2.975.018 2.975-1.17 1.466-2.53 1.023-2.53 1.023-2.867-2.023-5.074-.92-5.074-.92-1.428.644-2.663 1.545-3.13 2.027-1.03 1.049-2.175 2.054-3.536 2.541-.825.285-2.052.507-2.748-.075-1.622-1.363.76-5.614 1.94-7.37.675-.988 1.853-2.119 2.715-3.074.256-.284.609-.602.977-.926l.37-.324c.675-.593 1.31-1.172 1.397-1.555.168-.731-.368-1.306-1-1.489-.883-.253-1.805.489-2.037.618-.235.123-.783.572-1.25.88-.417.284-1.372 1.187-1.64 1.449-.267.251-.935.948-1.489 1.36-.546.415-2.12 1.92-3.456 2.693-2.062 1.192-5.09 2.418-7.47 1.174-.904-.46-1.104-1.639-.41-3.15.684-1.494 2.29-2.891 3.707-4.107 2.686-2.33 5.483-4.209 8.318-6.162.698-.48 1.455-.9 2.128-1.394.664-.497 1.86-1.425 1.614-1.909-.26-.458-1.547-1.677-4.444.237-.96.636-1.945 1.672-3.387 2.113-3.515 1.076-7.903-2.039-6.094-6.008 1.276-2.795 4.83-2.423 7.483-2.675 2.64-.25 5.726-.64 8.385-1.615 1.714-.633 5.582-1.798 7.77-.776Zm3.601-77.663c12.901 0 23.358 10.428 23.358 23.276 0 12.857-10.458 23.281-23.358 23.281-12.905 0-23.357-10.424-23.357-23.28 0-12.848 10.452-23.277 23.357-23.277Zm0 2.444c-11.542 0-20.902 9.331-20.902 20.832 0 11.503 9.36 20.835 20.902 20.835 11.543 0 20.9-9.332 20.9-20.835 0-11.501-9.357-20.832-20.9-20.832Zm17.384 24.718-.007.02c-.212.559-5.016 12.866-17.61 13.097-11.876.201-16.28-11.126-16.893-12.889l-.038-.11a7.483 7.483 0 0 1-.025-.076l-.012-.038 34.585-.004Zm-13.65-20.488 1.112 2.21s-2.629 1.502-2.775 4.14c-.085 1.546.508 2.36 1.107 3.146l.21.277c.175.232.343.469.487.728 0 0 2.634 3.865-1.11 8.84l-1.802-1.797s1.906-1.381 1.768-3.735c-.14-2.349-3.019-4.417-3.154-6.898-.14-2.493 1.246-4.978 4.156-6.911Zm-4.813-2.556 1.526 2.066s-3.922 2.976-3.922 5.74c0 2.76 1.665 4.145 2.216 5.803.56 1.658 1.113 4.146-2.077 8.154l-1.943-2.073s2.774-2.906 1.804-4.977c-.972-2.067-4.072-4.688-2.082-9.125 1.802-4.001 4.478-5.588 4.478-5.588Zm42.096-65.238c12.9 0 23.364 10.424 23.364 23.28 0 12.853-10.464 23.274-23.364 23.274-12.904 0-23.358-10.42-23.358-23.274 0-12.856 10.454-23.28 23.358-23.28Zm0 2.451c-11.542 0-20.897 9.325-20.897 20.829 0 11.497 9.355 20.824 20.897 20.824 11.541 0 20.905-9.327 20.905-20.824 0-11.504-9.364-20.829-20.905-20.829Zm1.597 3.632-.039 5.057 3.923-2.634.937 2.466-4.918 3.17-.076 6.526 5.634-3.32.285-5.806 2.622-.468-.297 4.734 4.32-2.576 1.495 2.457-4.449 2.513 4.271 2.092-1.683 1.995-5.236-2.643-5.676 3.202 5.678 3.198 5.234-2.615 1.683 1.995-4.27 2.091 4.448 2.507-1.496 2.433-4.319-2.549.297 4.743-2.622-.506-.285-5.777-5.634-3.323.076 6.528 4.918 3.164-.94 2.452-3.92-2.625.04 5.076h-2.869l.044-5.076-3.925 2.625-.939-2.452 4.916-3.164.082-6.528-5.636 3.323-.275 5.777-2.639.506.301-4.743-4.31 2.55-1.5-2.434 4.445-2.507-4.273-2.091 1.687-1.995 5.234 2.615 5.681-3.198-5.68-3.202-5.235 2.643-1.687-1.995 4.28-2.092-4.449-2.513 1.488-2.457 4.32 2.576-.302-4.731 2.64.465.274 5.805 5.636 3.32-.082-6.524-4.916-3.17.937-2.467 3.927 2.634-.044-5.057h2.868ZM138.997.354c12.897 0 23.363 10.42 23.362 23.283 0 12.854-10.465 23.274-23.362 23.274-12.903 0-23.367-10.42-23.367-23.274 0-12.863 10.464-23.283 23.367-23.283Zm0 2.457c-11.542 0-20.906 9.317-20.906 20.826 0 11.497 9.364 20.827 20.906 20.827 11.54 0 20.9-9.33 20.9-20.827 0-11.509-9.36-20.826-20.9-20.826Zm-3.33 3.777s.329.851.878 2.14l.17.399c.888 2.057 2.245 5.005 3.704 7.447.569.951 1.157 1.916 1.735 2.888l.384.648c3.12 5.3 5.777 10.733 3.403 15.091-5.97 10.944-19.07 4.476-18.817-3.074.297-8.767 6.551-14.66 8.543-25.539ZM212.523 0c8.72 0 15.797 7.057 15.797 15.744 0 8.703-7.072 15.757-15.797 15.757-8.738 0-15.812-7.051-15.812-15.757C196.711 7.054 203.79 0 212.523 0ZM145.66 5.047l.064.162.06.15c.422 1.059 1.882 4.604 3.511 7.318l.337.562.34.565.171.284.342.57.34.572.328.56c2.28 3.927 4.122 7.918 2.364 11.14-1.179 2.16-2.728 3.422-4.364 4.024-.331-4.235-2.924-8.905-5.639-13.441l-.583-.97c-.291-.484-.583-.965-.87-1.444 1.375-2.92 2.865-6.035 3.6-10.052Zm66.863-2.555c-7.353 0-13.312 5.938-13.312 13.252 0 7.33 5.955 13.265 13.312 13.265 7.344 0 13.297-5.938 13.297-13.265 0-7.311-5.957-13.252-13.297-13.252Zm7.243 8.62-3.633 6.262-3.62 6.262-3.62-6.262-3.629-6.262h14.502Z">
    </path>
    <path
      class="texture" 
      d="M214.62 395.157c5.032 0 8.363 4.387 8.363 9.869v.054c0 5.487-3.353 9.92-8.417 9.92-5.06 0-8.363-4.389-8.363-9.863v-.057c0-5.478 3.357-9.923 8.417-9.923Zm-12.937.195v19.325h-3.355v-15.902l-3.467.962-.713-2.74 5.2-1.645h2.335Zm12.883 2.846c-2.975 0-4.869 3.016-4.869 6.828v.054c0 3.781 1.925 6.88 4.923 6.88 2.994 0 4.87-3.072 4.87-6.823v-.057c0-3.784-1.954-6.882-4.924-6.882Zm56.731-10.391c2.424 0 3.99.685 5.366 2.026 1.405 1.426 2.313 3.542 2.313 7.32v.055c0 6.167-3.058 10.447-8.256 10.447-2.669 0-4.54-.96-6.16-2.308l1.84-2.572c1.463 1.207 2.752 1.808 4.402 1.808 3.41 0 4.65-3.505 4.677-6.064-1.07 1.293-2.56 2.057-4.538 2.057-4.097 0-6.82-2.382-6.82-6.079v-.054c0-3.76 2.913-6.636 7.176-6.636Zm.033 2.905c-2.395 0-3.825 1.586-3.825 3.564v.056c0 1.996 1.537 3.425 3.928 3.425 2.454 0 3.908-1.585 3.908-3.454v-.054c0-2.004-1.568-3.537-4.01-3.537Zm54.861-28.302c3.85 0 6.686 2.219 6.686 5.182v.052c0 2.14-1.18 3.422-2.808 4.277 2.118.956 3.467 2.333 3.467 4.606v.05c0 3.427-3.14 5.571-7.345 5.571-4.21 0-7.348-2.199-7.348-5.515v-.057c0-2.302 1.295-3.75 3.47-4.655-1.622-.855-2.808-2.136-2.808-4.276v-.053c0-2.94 2.837-5.182 6.686-5.182Zm0 11.077c-2.283 0-4.019 1.15-4.019 2.901v.053c0 1.56 1.485 2.889 4.02 2.889 2.528 0 4.041-1.294 4.041-2.89v-.052c0-1.75-1.756-2.901-4.042-2.901ZM293.473 54.263c49.575 30.03 87.565 81.65 89.17 143.659 2.456 94.858-62.912 179.58-176.74 179.58l-.026-22.352c1.666.05 3.344.076 5.024.076 88.56 0 160.356-71.544 160.356-159.791 0-58.874-31.936-110.306-79.49-138.03l1.706-3.142Zm32.718 310.973c-2.062 0-3.438 1.204-3.438 2.655v.054c0 1.67 1.46 2.85 3.438 2.85 1.982 0 3.436-1.18 3.436-2.823v-.05c0-1.482-1.372-2.686-3.436-2.686Zm50.632-41.463v2.55l-8.662 16.636h-3.825l8.635-16.225h-9.678v-2.961h13.53ZM395.09 274.9c2.505 0 4.205.798 5.882 2.14l-1.814 2.601c-1.344-1.046-2.475-1.677-4.177-1.677-3.358 0-4.573 3.486-4.626 6.12 1.13-1.183 2.56-1.947 4.626-1.947 3.712 0 6.71 2.185 6.71 6.03v.054c0 3.806-3.112 6.52-7.156 6.52-2.362 0-4.066-.735-5.362-2.025-1.458-1.459-2.337-3.454-2.337-7.322v-.05c0-5.87 2.808-10.444 8.254-10.444Zm-.716 10.06c-2.393 0-3.905 1.533-3.905 3.369v.056c0 1.948 1.59 3.42 3.985 3.42 2.396 0 3.854-1.472 3.854-3.451v-.055c0-1.914-1.54-3.34-3.934-3.34Zm19.773-70.905v2.986h-8.61l-.302 4.496c.908-.33 1.756-.548 3.053-.548 3.742 0 6.713 1.973 6.713 6.025v.06c0 3.92-2.888 6.492-7.153 6.492-2.944 0-5.255-1.175-7.07-2.93l2.09-2.437c1.542 1.427 3.163 2.302 4.95 2.302 2.316 0 3.823-1.324 3.823-3.317v-.057c0-1.944-1.653-3.175-3.983-3.175-1.38 0-2.56.38-3.55.847l-2.038-1.346.553-9.398h11.524Zm-5.56-61.593v12.257h2.746v2.772h-2.747v4.306h-3.248v-4.306h-9.709l-.633-2.41 10.703-12.619h2.887Zm-3.249 4.668-6.327 7.59h6.327v-7.59Zm-13.586-54.082v2.534l-5.366 5.472c2.916.357 5.665 1.842 5.665 5.372v.056c0 3.538-2.72 6.086-6.74 6.086-3.354 0-5.747-1.389-7.368-3.37l2.364-2.189c1.375 1.612 2.914 2.523 5.064 2.523 1.894 0 3.325-1.151 3.325-2.907v-.06c0-1.89-1.735-2.957-4.43-2.957h-1.57l-.544-2.117 5.195-5.508h-8.33v-2.935h12.735Zm-37.2-43.383c3.77 0 6.353 2.303 6.353 5.732v.053c0 3.02-1.593 4.66-5.002 7.433l-3.96 3.287h9.156v2.963h-13.914V76.47l6.624-5.617c2.644-2.248 3.604-3.455 3.604-5.183 0-1.887-1.35-2.98-3.106-2.98-1.76 0-2.973.948-4.429 2.871l-2.42-1.885c1.842-2.552 3.654-4.01 7.094-4.01Zm-41.55-39.377v18.938h-3.564v-15.58l-3.676.94-.76-2.68 5.517-1.618H313Z">
    </path>
    <g>
      <circle
        class="big-circle" 
        cx="206" 
        cy="200" 
        r="130">
      </circle>
      <circle
        class="small-circle"
        cx="206"
        cy="200" 
        r="100">
      </circle>
      <circle
        class="stroke"
        stroke-dasharray="628.318530718" 
        stroke-dashoffset="471.238898038" 
        cx="206" 
        cy="200" 
        r="100" 
        stroke-width="5" 
        stroke-linecap="round">
      </circle>
    </g>
  </g>
</svg>
